{"title":"Mr Peabody and Sherman 2014 CAM x264 AC3-Cutting EDGE","uid":9739059,"size":890228055,"categoryP":"video","categoryS":"movies","magnet":"?xt=urn:btih:c4c8b18c3602047f681bdf3744fe588bc809f11e&amp;dn=Mr+Peabody+and+Sherman+2014+CAM+x264+AC3-Cutting+EDGE&amp;tr=udp%3A%2F%2Ftracker.openbittorrent.com%3A80&amp;tr=udp%3A%2F%2Fopen.demonii.com%3A1337&amp;tr=udp%3A%2F%2Ftracker.coppersurfer.tk%3A6969&amp;tr=udp%3A%2F%2Fexodus.desync.com%3A6969","seeders":11,"leechers":0,"uploader":".BONE.","files":5,"time":1394480924,"description":"General\nComplete name : Mr Peabody and Sherman 2014 CAM x264 AC3-Cutting EDGE.mkv\nFormat : Matroska\nFormat version : Version 2\nFile size : 829 MiB\nDuration : 1h 22mn\nOverall bit rate mode : Variable\nOverall bit rate : 1 404 Kbps\nEncoded date : UTC 2014-03-08 16:26:14\nWriting application : mkvmerge v6.5.0 ('Isn't she lovely') built on Oct 20 2013 12:50:05\nWriting library : libebml v1.3.0 + libmatroska v1.4.1\n\nVideo\nID : 1\nFormat : AVC\nFormat/Info : Advanced Video Codec\nFormat profile : &lt;a class=&quot;__cf_email__&quot; href=&quot;/cdn-cgi/l/email-protection&quot; data-cfemail=&quot;c28aaba5aa828ef6ecf3&quot;&gt;[email&amp;#160;protected]&lt;/a&gt;&lt;script cf-hash='f9e31' type=&quot;text/javascript&quot;&gt;\n/* &lt;![CDATA[ */!function(){try{var t=&quot;currentScript&quot;in document?document.currentScript:function(){for(var t=document.getElementsByTagName(&quot;script&quot;),e=t.length;e--;)if(t[e].getAttribute(&quot;cf-hash&quot;))return t[e]}();if(t&amp;&amp;t.previousSibling){var e,r,n,i,c=t.previousSibling,a=c.getAttribute(&quot;data-cfemail&quot;);if(a){for(e=&quot;&quot;,r=parseInt(a.substr(0,2),16),n=2;a.length-n;n+=2)i=parseInt(a.substr(n,2),16)^r,e+=String.fromCharCode(i);e=document.createTextNode(e),c.parentNode.replaceChild(e,c)}}}catch(u){}}();/* ]]&gt; */&lt;/script&gt;\nFormat settings, CABAC : Yes\nFormat settings, ReFrames : 3 frames\nCodec ID : V_MPEG4/ISO/AVC\nDuration : 1h 22mn\nBit rate mode : Variable\nBit rate : 1 184 Kbps\nMaximum bit rate : 40.0 Mbps\nWidth : 720 pixels\nHeight : 304 pixels\nDisplay aspect ratio : 2.35:1\nFrame rate mode : Constant\nFrame rate : 23.976 fps\nColor space : YUV\nChroma subsampling : 4:2:0\nBit depth : 8 bits\nScan type : Progressive\nBits/(Pixel*Frame) : 0.226\nStream size : 699 MiB (84%)\nWriting library : x264 core 138 r2358 9e941d1\n\nAudio\nID : 2\nFormat : AC-3\nFormat/Info : Audio Coding 3\nMode extension : CM (complete main)\nFormat settings, Endianness : Big\nCodec ID : A_AC3\nDuration : 1h 22mn\nBit rate mode : Constant\nBit rate : 192 Kbps\nChannel(s) : 2 channels\nChannel positions : Front: L R\nSampling rate : 44.1 KHz\nBit depth : 16 bits\nCompression mode : Lossy\nStream size : 113 MiB (14%)\nLanguage : English\nDefault : Yes\nForced : No\n &lt;a href=&quot;\nhttp://s29.postimg.org/65xx0iy8n/vlcsnap_2014_03_08_17h38m14s39.png&quot; rel=&quot;nofollow&quot; target=&quot;_NEW&quot;&gt;\nhttp://s29.postimg.org/65xx0iy8n/vlcsnap_2014_03_08_17h38m14s39.png&lt;/a&gt; &lt;a href=&quot;\nhttp://s29.postimg.org/jycbw5p07/vlcsnap_2014_03_08_17h36m44s173.png&quot; rel=&quot;nofollow&quot; target=&quot;_NEW&quot;&gt;\nhttp://s29.postimg.org/jycbw5p07/vlcsnap_2014_03_08_17h36m44s173.png&lt;/a&gt; &lt;a href=&quot;\nhttp://s29.postimg.org/c31shcfdj/vlcsnap_2014_03_08_17h36m20s177.png&quot; rel=&quot;nofollow&quot; target=&quot;_NEW&quot;&gt;\nhttp://s29.postimg.org/c31shcfdj/vlcsnap_2014_03_08_17h36m20s177.png&lt;/a&gt; &lt;a href=&quot;\nhttp://s29.postimg.org/3tlbp6w9j/vlcsnap_2014_03_08_17h34m20s0.png&quot; rel=&quot;nofollow&quot; target=&quot;_NEW&quot;&gt;\nhttp://s29.postimg.org/3tlbp6w9j/vlcsnap_2014_03_08_17h34m20s0.png&lt;/a&gt; &lt;a href=&quot;\nhttp://s29.postimg.org/9vsyfokpj/vlcsnap_2014_03_08_17h07m27s255.png&quot; rel=&quot;nofollow&quot; target=&quot;_NEW&quot;&gt;\nhttp://s29.postimg.org/9vsyfokpj/vlcsnap_2014_03_08_17h07m27s255.png&lt;/a&gt;","torrent":{"xt":"urn:btih:c4c8b18c3602047f681bdf3744fe588bc809f11e","amp;dn":"Mr+Peabody+and+Sherman+2014+CAM+x264+AC3-Cutting+EDGE","amp;tr":["udp%3A%2F%2Ftracker.openbittorrent.com%3A80","udp%3A%2F%2Fopen.demonii.com%3A1337","udp%3A%2F%2Ftracker.coppersurfer.tk%3A6969","udp%3A%2F%2Fexodus.desync.com%3A6969"],"infoHash":"c4c8b18c3602047f681bdf3744fe588bc809f11e","infoHashBuffer":{"type":"Buffer","data":[196,200,177,140,54,2,4,127,104,27,223,55,68,254,88,139,200,9,241,30]},"announce":[],"urlList":[]}}